PathFileType	4	(X/Y/Z)
DataRate	CameraRate	NumFrames	NumMarkers	Units	OrigDataRate	OrigDataStartFrame	OrigNumFrames																																																																																																			
200	200	5	38	mm	200	51	200																																																																																																			
Frame#	Time	C7			Sternum			r_AMC1			r_AMC2			r_AMC3			l_AMC1			l_AMC2			l_AMC3			PX			T8			r_humerous			r_elbow_medial			r_elbow_lateral			r_forearm			r_wrist_radius			r_wrist_ulna			r_MCP_1			r_MCP_3			l_humerous			l_elbow_medial			l_elbow_lateral			l_forearm			l_wrist_radius			l_wrist_ulna			l_MCP_1			l_MCP_3			r_ASIS			r_PSIS			l_ASIS			l_PSIS			r_IC			l_IC			ts_r			ai_r			aa_r			ts_l			ai_l			aa_l		
		X1	Y1	Z1	X2	Y2	Z2	X3	Y3	Z3	X4	Y4	Z4	X5	Y5	Z5	X6	Y6	Z6	X7	Y7	Z7	X8	Y8	Z8	X9	Y9	Z9	X10	Y10	Z10	X11	Y11	Z11	X12	Y12	Z12	X13	Y13	Z13	X14	Y14	Z14	X15	Y15	Z15	X16	Y16	Z16	X17	Y17	Z17	X18	Y18	Z18	X19	Y19	Z19	X20	Y20	Z20	X21	Y21	Z21	X22	Y22	Z22	X23	Y23	Z23	X24	Y24	Z24	X25	Y25	Z25	X26	Y26	Z26	X27	Y27	Z27	X28	Y28	Z28	X29	Y29	Z29	X30	Y30	Z30	X31	Y31	Z31	X32	Y32	Z32	X33	Y33	Z33	X34	Y34	Z34	X35	Y35	Z35	X36	Y36	Z36	X37	Y37	Z37	X38	Y38	Z38
																																																																																																										
51	0.25	201.1225	1376.8575	-209.9961	327.0824	1300.8589	-198.8267	199.252	1322.2082	-43.3455	236.0991	1318.0924	-10.1423	259.7804	1350.3001	-30.8676	226.8795	1327.0393	-374.8411	268.0119	1317.7627	-405.0477	291.7643	1351.1156	-371.9158	378.2158	1110.7396	-193.5609	147.6538	1193.667	-221.4247	294.3283	1124.9615	-7.3331	208.574	992.1222	-25.7759	235.9033	998.0581	33.5485	282.1186	839.4827	42.0895	326.5573	777.1033	18.1793	278.7781	770.5618	37.124	338.3558	677.4721	31.3351	296.8882	690.1645	42.9159	320.3788	1115.7959	-389.6668	220.1344	999.4829	-407.0562	259.0302	993.3358	-447.0488	308.7568	841.1854	-440.877	338.1571	770.2702	-408.0443	301.4155	766.1433	-435.1189	352.9848	693.2997	-417.5615	309.2877	691.2246	-440.9693	362.0872	907.5101	-67.3579	174.5182	922.507	-158.8282	371.7701	895.4107	-329.7595	179.0045	916.7614	-262.4858	274.0693	966.7285	-42.0757	282.2742	940.7835	-368.7508	158.9754	1298.5864	-125.7838	150.3164	1197.9458	-118.1457	235.6925	1294.8385	-2.0157	174.5924	1307.0232	-294.5537	158.1501	1207.5019	-286.4773	253.924	1289.6867	-406.5495
52	0.255	201.1505	1376.8719	-209.9691	327.1963	1300.7948	-198.8521	199.2798	1322.225	-43.3237	236.1803	1318.0532	-10.1374	259.7609	1350.0081	-31.1546	226.8734	1327.124	-374.8393	268.0518	1317.8158	-405.0568	291.8954	1351.0247	-371.887	378.2637	1110.7444	-193.5676	147.6893	1193.6722	-221.4054	294.3876	1124.9277	-7.3247	208.6038	992.1264	-25.7562	235.9361	998.0623	33.5795	282.1712	839.4307	42.0901	326.5585	777.1256	18.1952	278.8688	770.4491	37.0764	338.3838	677.4598	31.3146	296.941	690.1267	42.9164	320.4395	1115.7778	-389.706	220.1495	999.4876	-407.0519	259.0578	993.3497	-447.0164	308.7537	841.1884	-440.8331	338.1828	770.2062	-407.9737	301.4669	766.1307	-435.1196	352.5609	693.2981	-417.5152	309.2801	691.2083	-440.9461	362.1525	907.5017	-67.336	174.5613	922.4989	-158.8324	371.7668	895.397	-329.7491	179.0455	916.7771	-262.4799	274.1094	966.6727	-42.0671	282.3041	940.7669	-368.701	158.9936	1298.5773	-125.7649	150.3026	1197.9562	-118.0985	235.587	1294.7081	-2.263	174.6132	1307.0147	-294.5626	158.1399	1207.5185	-286.3865	253.9275	1289.7311	-406.5281
53	0.26	201.2009	1376.8719	-209.9458	327.2192	1300.8381	-198.8248	199.3047	1322.2211	-43.2983	236.2359	1318.0347	-10.0988	259.7172	1350.1581	-31.1489	226.8934	1327.1392	-374.8115	268.0191	1317.8497	-404.9608	291.828	1351.1103	-371.8478	378.3084	1110.7261	-193.5779	147.447	1193.6099	-221.177	294.3997	1125.0016	-7.2721	208.6298	992.1323	-25.7345	235.9882	998.058	33.602	282.2346	839.4588	42.1006	326.575	777.1401	18.2006	278.9662	770.415	37.1294	338.4058	677.4778	31.3271	296.9404	690.1404	42.8736	320.4588	1115.7639	-389.6826	220.1527	999.5297	-407.0371	259.087	993.3706	-447.0181	308.7826	841.1921	-440.8247	338.2175	770.2411	-408.0038	301.5179	766.1396	-435.0787	352.5807	693.2819	-417.5048	309.3717	691.2036	-440.9995	362.1646	907.5137	-67.3136	174.5906	922.5104	-158.8189	371.8009	895.3964	-329.7135	179.0712	916.8068	-262.4803	274.1382	966.6793	-42.0642	282.2424	940.8121	-368.6549	159.0304	1298.6336	-125.6903	150.308	1197.9489	-118.0794	235.6223	1294.6856	-2.2363	174.521	1306.9896	-294.4158	158.09	1207.4718	-286.2262	253.7086	1289.6043	-406.5133
54	0.265	201.2412	1376.8726	-209.9207	327.1885	1300.8879	-198.7642	199.3567	1322.2361	-43.273	236.3227	1317.9853	-10.1055	259.8037	1350.0995	-31.0884	226.9152	1327.1366	-374.7933	268.0558	1317.8726	-404.9907	291.9517	1351.0596	-371.8568	378.2396	1110.7716	-193.5182	147.7141	1193.6759	-221.3351	294.4252	1125.0343	-7.2353	208.6682	992.1163	-25.689	236.0427	998.0554	33.6098	282.207	839.4513	42.1326	326.6145	777.108	18.2001	279.0349	770.374	37.0964	338.4334	677.4713	31.3148	296.9306	690.1735	42.898	320.4818	1115.7886	-389.6567	220.1768	999.5358	-407.0343	259.1039	993.3742	-447.0051	308.7134	841.3198	-440.8359	338.2343	770.2287	-408.0116	301.5326	766.1572	-435.148	352.6377	693.2408	-417.5337	309.3677	691.2012	-440.9836	362.1791	907.5175	-67.3034	174.5995	922.4958	-158.8054	371.7877	895.3601	-329.7099	179.0837	916.8207	-262.4724	274.5583	966.9556	-41.8451	282.1948	940.8749	-368.7558	159.1239	1298.5819	-125.6577	150.3309	1197.9602	-117.9849	235.6944	1294.7073	-2.1429	174.6643	1307.055	-294.486	158.2278	1207.5507	-286.3507	253.9818	1289.7344	-406.4708
55	0.27	201.2687	1376.8777	-209.8822	327.2197	1300.9021	-198.7496	199.395	1322.2517	-43.2506	236.2893	1318.083	-10.042	259.8741	1350.0521	-31.027	226.9468	1327.157	-374.7854	268.072	1317.8416	-404.943	292.0159	1351.0498	-371.9251	378.3809	1110.785	-193.5581	147.7535	1193.7028	-221.3363	294.4481	1125.0316	-7.2234	209.2155	992.0129	-25.785	236.0647	998.0559	33.6451	282.2847	839.4058	42.1253	326.6063	777.1433	18.2285	279.0446	770.3996	37.1458	338.4653	677.4639	31.3434	296.978	690.1829	42.8955	320.5177	1115.7651	-389.6596	220.1982	999.5391	-407.029	259.1215	993.3896	-446.9966	308.796	841.2325	-440.8129	338.2286	770.2423	-407.9828	301.4482	766.2207	-435.0927	353.0122	693.2972	-417.5088	309.5064	691.1356	-441.014	362.1917	907.5169	-67.2638	174.6372	922.4997	-158.7968	371.811	895.3923	-329.6986	179.1174	916.8058	-262.4415	274.6122	966.8862	-41.8177	282.2598	940.8811	-368.6503	159.1148	1298.634	-125.6353	150.3468	1198.0012	-117.965	235.7427	1294.6992	-2.1358	174.6939	1307.0718	-294.4431	158.2658	1207.5774	-286.341	253.9886	1289.8301	-406.4666
